<?xml version="1.0" encoding="utf-8"?>
<!-- Generator: Adobe Illustrator 22.1.0, SVG Export Plug-In . SVG Version: 6.00 Build 0)  -->
<svg version="1.1" id="Слой_1" xmlns="http://www.w3.org/2000/svg" xmlns:xlink="http://www.w3.org/1999/xlink" x="0px" y="0px"
	 viewBox="0 0 2392 2138.0722656" style="enable-background:new 0 0 2392 2138.0722656;" xml:space="preserve">
<style type="text/css">
	.st0{fill:none;stroke:#000000;stroke-width:30;stroke-miterlimit:10;}
	.st1{fill:#FFFFFF;}
	.st2{fill:none;}
	.st3{display:none;fill:#ADACA5;}
	.st4{display:none;}
	.st5{display:inline;fill:#EDECDD;}
	.st6{fill:#616161;}
	.st7{fill:url(#SVGID_1_);}
	.st8{fill:#7F7F7F;}
	.st9{display:none;fill:#FFFF00;}
	.st10{display:none;opacity:0.3;fill:#ADACA5;}
	.st11{fill:#F9F9F9;}
	.st12{fill:#595959;}
	.st13{fill:url(#SVGID_2_);}
	.st14{fill:url(#SVGID_3_);}
	.st15{fill:#8E8E8E;}
</style>
<g>
	<path d="M5.039978,1160.0114746c25.6171265,0.338501,51.2341309,0.4558105,76.8510132,0.456543
		c12.8084717,0.0179443,25.6169434,0.0539551,38.425354-0.0151367l38.425293-0.1887207l153.7008667-1.3326416l307.4015503-2.7696533
		l307.4014282-3.0941162l307.4012451-3.4597168l0.020752,39.5135498l-307.4046631-3.1363525l-307.404541-2.770752
		l-307.4042969-2.4464111l-153.7021484-1.1708984l-38.4254761-0.1483154
		c-12.8084717-0.055542-25.6168823-0.0061035-38.425354,0.0253906c-25.6168823,0.02771-51.2337646,0.1717529-76.8504639,0.5372314
		L5.039978,1160.0114746z"/>
</g>
<g>
	<path d="M2391.9956055,1179.8544922c-24.0883789-0.3621826-48.1767578-0.5030518-72.265625-0.5274658
		c-12.0444336-0.0297852-24.0883789-0.0776367-36.1328125-0.0203857l-36.1333008,0.1531982l-144.5322266,1.1905518
		l-289.0649414,2.4855957l-289.0649414,2.8099365l-289.0651855,3.1756592l0.0168457-39.5135498l289.0622559,3.4204102
		l289.0625,3.0549316l289.0627441,2.7304688l144.53125,1.3129883l36.1328125,0.1837158
		c12.0444336,0.0675049,24.0888672,0.0299072,36.1330566,0.0102539c24.088623-0.0040283,48.1774902-0.1245117,72.2663574-0.4663086
		L2391.9956055,1179.8544922z"/>
</g>
<line class="st0" x1="5.04526" y1="1597.9187012" x2="2397.045166" y2="1597.9187012"/>
<rect x="441.7515869" y="1568.5657959" class="st1" width="159.0158997" height="60"/>
<rect x="885.2595215" y="1568.5657959" class="st1" width="159.0158997" height="60"/>
<rect y="1135.4613037" class="st1" width="197.9513702" height="60"/>
<g>
	<rect x="81.4402237" y="1212.6896973" class="st2" width="2346.5144043" height="380.2290039"/>
	<path d="M35.4262695,1181.0527344c18.2143555-7.6689453,34.0317383-11.5029297,47.4526367-11.5029297
		s25.2392578,1.2802734,35.4697266,3.8339844c10.2226563,2.5615234,20.6855469,6.7929688,31.3950195,12.7021484
		c10.7026367,5.9169922,20.6855469,13.1816406,29.9575195,21.8085938
		c17.8920898,16.9414063,33.0727539,36.1142578,45.5351563,57.5185547l95.8637695,179.7441406l139.0024414-239.1796875h4.3139648
		l49.8491211,281.8388672c7.6689453,43.4609375,20.925293,77.9648438,39.7832031,103.5332031
		c18.8505859,25.8828125,44.7338867,38.8251953,77.6494141,38.8251953c2.2319336,0,4.3139648,0,6.2314453,0v4.7929688
		c-17.5776367,4.7929688-34.8330078,7.1894531-51.7666016,7.1894531c-34.5107422,0-65.9887695-13.5859375-94.4257813-40.7421875
		c-27.4858398-25.8828125-46.1791992-63.7490234-56.0800781-113.5986328l-23.4868164-139.4814453l-90.1118164,156.2578125
		c-12.1474609,20.1318359-18.3789063,37.8662109-18.6933594,53.2041016h-4.3139648l-119.3500977-226.2382813
		l-23.4868164,191.7275391c-0.9584961,7.3544922,2.2319336,13.2636719,9.5864258,17.7353516
		c2.8759766,1.9169922,5.9091797,2.8759766,9.1074219,2.8759766h7.6689453v4.3134766H82.3994141v-4.7929688h7.6694336
		c8.3056641,0,15.7348633-2.4716797,22.2880859-7.4296875c6.5458984-4.9501953,10.6201172-11.7431641,12.2226563-20.3710938
		l32.59375-228.6347656c-14.3798828-25.5615234-30.8413086-48.2460938-49.3701172-68.0634766
		c-20.7753906-22.3632813-42.4941406-33.5517578-65.1870117-33.5517578c-2.2319336,0-4.3139648,0.1640625-6.2314453,0.4794922
		L35.4262695,1181.0527344z"/>
	<path d="M899.1518555,1543.4179688h4.3139648v4.7929688H750.5634766v-4.7929688h4.3134766
		c7.0253906,0,12.2226563-2.1572266,15.578125-6.4707031c3.3549805-4.3144531,5.0327148-8.3886719,5.0327148-12.2226563
		c0-3.8349609-0.8012695-7.6689453-2.3964844-11.5039063l-23.4868164-58.9560547H637.4443359l-24.9248047,58.9560547
		c-1.6025391,4.15625-2.3964844,8.0732422-2.3964844,11.7431641c0,3.6777344,1.6777344,7.6689453,5.0327148,11.9833984
		c3.3554688,4.3134766,8.7026367,6.4707031,16.0571289,6.4707031h3.8344727v4.7929688H532.4736328v-4.7929688h4.3134766
		c7.3549805,0,14.6943359-2.2324219,22.0488281-6.7109375c7.347168-4.4707031,13.4208984-11.1816406,18.2143555-20.1308594
		l110.722168-250.6835938c15.0161133-31.6347656,23.0073242-52.5605469,23.9658203-62.7910156h4.3139648l142.3579102,312.515625
		c4.7929688,9.2714844,10.859375,16.2216797,18.2138672,20.8505859
		C883.9711914,1541.1035156,891.4829102,1543.4179688,899.1518555,1543.4179688z M645.5927734,1434.1328125h95.8632813
		l-46.4936523-117.9121094L645.5927734,1434.1328125z"/>
	<path d="M1049.6523438,1217.4814453c-8.3129883,0-15.4204102,2.9580078-21.3295898,8.8671875
		c-5.9165039,5.9169922-9.0322266,13.0244141-9.3466797,21.3300781v286.1523438
		c0,22.6855469-6.0737305,42.9746094-18.2138672,60.8740234c-12.1479492,17.8916016-27.0068359,30.6757813-44.5766602,38.3457031
		c-17.5776367,7.6689453-35.1552734,11.5029297-52.7250977,11.5029297c-4.1567383,0-8.3129883-0.1640625-12.4624023-0.4794922
		v-4.3134766c19.1728516-7.9912109,33.3125-21.8085938,42.4199219-41.4609375
		c9.1069336-19.6523438,13.6606445-41.6259766,13.6606445-65.90625v-284.7148438
		c-0.3222656-11.8183594-5.4375-20.6113281-15.3383789-26.3632813c-4.7929688-2.5537109-9.9082031-3.8339844-15.3383789-3.8339844
		h-6.230957v-4.7929688h145.7128906v4.7929688H1049.6523438z"/>
	<path d="M1099.015625,1543.4179688c8.3056641,0,15.4130859-2.9511719,21.3300781-8.8671875
		c5.9091797-5.9091797,9.0244141-13.0166016,9.3466797-21.3300781v-266.9804688
		c-0.9589844-11.1816406-6.2314453-19.4873047-15.8173828-24.9248047c-4.7939453-2.5537109-9.7509766-3.8339844-14.859375-3.8339844
		h-6.2304688v-4.7929688h183.578125c9.9013672,0,20.7685547-0.9589844,32.59375-2.8759766
		c11.8183594-1.9179688,20.1318359-3.8349609,24.9248047-5.7519531v83.8808594h-4.7929688v-5.7519531
		c0-14.3798828-4.2392578-25.9580078-12.7021484-34.7509766c-8.4707031-8.7851563-19.8916016-13.4960938-34.2714844-14.1396484
		h-80.5253906v139.4814453h63.2705078c11.8173828-0.3144531,21.5693359-4.3886719,29.2382813-12.2226563
		c7.6689453-7.8261719,11.5039063-17.4951172,11.5039063-28.9990234v-4.3134766h4.7929688v110.7226563h-4.7929688v-3.8349609
		c0-15.9746094-6.3964844-27.7998047-19.1728516-35.46875c-6.3964844-3.5126953-13.4208984-5.4306641-21.0908203-5.7519531
		h-63.7490234v134.6884766h62.7910156c23.3212891,0,42.8984375-6.7109375,58.7167969-20.1318359
		c15.8173828-13.4208984,27.5605469-32.4287109,35.2294922-57.0390625h4.7929688l-22.0488281,97.78125h-248.2861328v-4.7929688
		H1099.015625z"/>
	<path d="M1399.0673828,1503.6347656c0-23.0078125,4.9501953-42.6601563,14.859375-58.9570313h4.3134766
		c-0.3222656,2.5615234-0.4794922,5.1152344-0.4794922,7.6699219c0,22.0478516,7.9091797,41.3037109,23.7265625,57.7578125
		c15.8173828,16.4609375,37.4619141,24.6845703,64.9472656,24.6845703c21.4052734,0,38.1064453-5.1074219,50.0888672-15.3378906
		c11.9833984-10.2236328,17.9746094-23.1650391,17.9746094-38.8251953c0-18.8505859-12.7841797-35.3046875-38.3457031-49.3701172
		l-83.4013672-55.1210938c-16.6191406-9.5869141-28.5195313-21.1650391-35.7089844-34.7509766
		c-7.1894531-13.578125-10.7851563-27.3955078-10.7851563-41.4609375c0-30.0322266,9.5048828-53.2041016,28.5195313-69.5009766
		c19.0087891-16.296875,43.3789063-24.4453125,73.0966797-24.4453125c17.5693359,0,39.3037109,1.6025391,65.1875,4.7929688
		h30.1962891l-6.2304688,70.4599609h-4.7939453c0-16.6113281-6.15625-29.9570313-18.453125-40.0234375
		c-12.3056641-10.0654297-28.6845703-15.0976563-49.1308594-15.0976563c-24.9238281,0-42.9804688,7.6689453-54.1621094,23.0068359
		c-5.7519531,7.3544922-8.6279297,15.6601563-8.6279297,24.9248047c0,15.3378906,11.1816406,29.5605469,33.5517578,42.6591797
		l91.5498047,59.4355469c28.7597656,16.6191406,43.1386719,41.0644531,43.1386719,73.3359375
		c0,34.1962891-11.5859375,60.3193359-34.75,78.3681641c-23.171875,18.0566406-53.9238281,27.0820313-92.2695313,27.0820313
		c-21.7333984,0-41.7822266-2.6367188-60.1542969-7.9091797c-18.3789063-5.2724609-31.8740234-12.3798828-40.5019531-21.3300781
		C1400.1835938,1519.6162109,1399.0673828,1512.2617188,1399.0673828,1503.6347656z"/>
	<path d="M1848.1826172,1232.3398438v281.3603516c0.3144531,8.3134766,3.4306641,15.3378906,9.3466797,21.0898438
		c5.9091797,5.7519531,13.0166016,8.6279297,21.3300781,8.6279297h5.7519531l0.4794922,4.7929688h-145.7128906v-4.7929688h6.2304688
		c7.984375,0,14.9335938-2.8759766,20.8505859-8.6279297c5.9091797-5.7519531,9.1816406-12.6191406,9.8261719-20.6103516
		v-281.8398438h-64.7080078c-14.7011719,0.3222656-26.3623047,4.9580078-34.9902344,13.9003906
		c-8.6279297,8.9501953-12.9414063,20.6103516-12.9414063,34.9902344v5.7519531h-4.7929688v-83.4013672
		c4.4707031,1.9169922,12.5371094,3.8349609,24.2050781,5.7519531c11.6611328,1.9169922,22.4453125,2.8759766,32.3544922,2.8759766
		h193.1650391c15.6523438-0.3144531,28.4365234-1.5957031,38.3457031-3.8349609
		c9.9003906-2.2314453,15.9746094-3.8339844,18.2138672-4.7929688v83.4013672h-4.7929688v-5.7519531
		c0-14.3798828-4.3144531-26.0400391-12.9423828-34.9902344c-8.6269531-8.9423828-20.2958984-13.578125-34.9902344-13.9003906
		H1848.1826172z"/>
	<path d="M2343.7871094,1217.4814453h-6.7099609c-9.5869141,0-18.6933594,2.71875-27.3212891,8.1484375
		c-8.6279297,5.4375-15.5029297,11.9824219-20.6113281,19.6513672l-94.4248047,150.5068359v117.4326172
		c0,8.3134766,3.0332031,15.4208984,9.1064453,21.3300781c6.0664063,5.9160156,13.2558594,8.8671875,21.5693359,8.8671875h5.7519531
		l0.4794922,4.7929688h-145.7128906v-4.7929688h6.2314453c8.3056641,0,15.4130859-2.8759766,21.3291016-8.6279297
		c5.9091797-5.7519531,9.0244141-12.7763672,9.3466797-21.0898438v-118.3916016l-91.5498047-150.5058594
		c-4.7929688-7.6699219-11.5859375-14.140625-20.3710938-19.4130859
		c-8.7919922-5.2724609-17.8164063-7.9082031-27.0810547-7.9082031h-6.7109375v-4.7929688h158.6542969v4.7929688h-6.2304688
		c-7.0332031,0-12.4628906,3.1982422-16.296875,9.5859375c-1.9169922,3.5205078-2.8759766,6.9501953-2.8759766,10.3056641
		s0.7939453,6.6357422,2.3964844,9.8261719l68.5429688,124.6220703l70.9384766-124.6220703
		c1.9169922-3.1904297,2.8759766-6.4707031,2.8759766-9.8261719s-1.1230469-6.6279297-3.3554688-9.8261719
		c-3.8339844-6.7099609-9.2714844-10.0654297-16.296875-10.0654297h-5.7509766v-4.7929688h114.0771484V1217.4814453z"/>
</g>
<path class="st3" d="M1228.4082031,1184.9335938c-105.8779297-40.4628906-177.465332-102.2646484-218.8764648-146.9853516
	c-45.2832031-48.9013672-65.4301758-88.456543-66.265625-90.1162109l-2.6694336-5.3032227V376.7080078H1242L1242.75,1190
	L1228.4082031,1184.9335938z"/>
<path class="st3" d="M1257.0917969,1184.9335938c105.8779297-40.4628906,177.465332-102.2646484,218.8764648-146.9853516
	c45.2832031-48.9013672,65.4301758-88.456543,66.265625-90.1162109l2.6694336-5.3032227V376.7080078H1243.5L1242.75,1190
	L1257.0917969,1184.9335938z"/>
<g class="st4">
	<g>
		<path class="st5" d="M965.5964966,401.7079468v534.8839111c0,0,80.9137573,149.9924927,277.1535034,224.9887085L1242,401.7079468
			H965.5964966z"/>
		<path class="st5" d="M1518.4034424,401.7079468v534.8839111c0,0-79.4136963,149.9924927-275.6534424,224.9887085L1242,401.7079468
			H1518.4034424z"/>
	</g>
</g>
<g>
	<path class="st6" d="M1234.661499,1203.9335938c120.2084961-39.3568115,214.177002-107.1529541,262.0908203-158.2852783
		c36.2243652-38.6395874,41.2214355-112.6992798,41.2214355-211.5231934c0-16.8751221-0.1894531-34.6785889-0.4042969-54.1179199
		l-0.2148438-70.5755005c0,0,0-286.6919556,0-332.7236938c-41.6688232,0-302.6931152,19-302.6931152,19
		s-261.2302856,0-302.6763306,0c0,46.0317383,0,332.7236938,0,332.7236938l-0.4298096,70.5755005
		c-0.2148438,19.4393311-0.2148438,37.2427979-0.2148438,54.1179199c0,99.067749,4.8076782,153.883606,41.0585327,192.5231934
		C1020.5012817,1096.7806396,1114.2636719,1164.5767822,1234.661499,1203.9335938"/>
	
		<linearGradient id="SVGID_1_" gradientUnits="userSpaceOnUse" x1="794.8060303" y1="1126.3095703" x2="824.1665039" y2="1126.3095703" gradientTransform="matrix(0 -26 -26 0 30520.2050781 21797.328125)">
		<stop  offset="0" style="stop-color:#616161"/>
		<stop  offset="1" style="stop-color:#FFFFFF"/>
	</linearGradient>
	<path class="st7" d="M1504.9272461,435.3497009h-268.996582H967.4141235v289.9091492l-0.5097656,80.8518677v4.5077515
		c-0.2200317,20.098938-0.2200317,38.8546143-0.2200317,56.543457c-0.2498169,51.2703247,1.2098999,86.1950684,4.838562,109.9508667
		c3.878418,24.0606079,9.4458618,36.2307129,17.1730347,44.6737671v-0.2357178v0.2357178
		c42.6240234,44.6528931,132.3686523,109.7041626,247.3453369,151.2134399
		c114.9857178-41.2680664,204.7304688-106.5605469,247.3442383-151.2134399
		c7.7374268-8.4430542,13.5454102-20.6131592,17.1832275-44.6737671
		c3.6287842-23.7557983,5.0883789-58.680542,5.0883789-109.9508667c0-18.7491455-0.2497559-39.0892944-0.4995117-61.2979126
		l-0.2303467-81.1237793V435.3497009"/>
	<path class="st8" d="M994.25354,1015.7932739c-7.5307617-8.3568115-12.956665-20.4025269-16.7364502-44.2172241
		c-3.536499-23.5130005-4.9590454-58.0808105-4.7156372-108.8272095c0-17.5079956,0-36.0720825,0.2144775-55.9655762v-4.4616699
		l0.4968262-80.0255127V435.3497009h261.6911011h262.1588135v286.4330139l0.2244873,80.2946777
		c0.2434082,21.9816284,0.4868164,42.1139526,0.4868164,60.6714478c0,50.7463989-1.4224854,85.314209-4.9589844,108.8272095
		c-3.5454102,23.8146973-9.2056885,35.8604126-16.74646,44.2172241
		c-41.5306396,44.1965942-128.9940186,108.8217163-241.0570068,149.6680298
		C1123.2575684,1124.3762207,1035.7940674,1059.9898682,994.25354,1015.7932739v-0.2333374V1015.7932739 M1510.3493652,420.7079468
		h-275.1455078H960.3026733v301.5881348l-0.4868164,80.0255127v4.2283325
		c-0.2533569,19.8620605-0.2533569,38.690918-0.2533569,56.1989136c0,51.0535278,1.4215088,86.0609131,5.2113647,111.1855469
		c3.536438,25.1127319,10.1514282,41.0742188,20.5263672,52.2984009l0,0
		c43.6543579,46.3421631,132.8626099,111.9691162,248.0231323,153.807373l1.8804932,0.5404053l2.1237793-0.5404053
		c115.161499-41.8382568,204.3398438-107.46521,247.9941406-153.807373c10.6184082-11.2241821,17-27.1856689,20.7797852-52.2984009
		c3.5164795-25.1246338,4.9589844-60.132019,4.9589844-111.1855469c0-18.8071289,0-38.6898193-0.2432861-60.9362183
		l-0.4678955-80.0299072V420.7079468"/>
</g>
<path class="st9" d="M1090.666626,546.666687"/>
<path class="st10" d="M1255.5917969,1198.0516357"/>
<path class="st10" d="M1242,389.8260803"/>
<path class="st11" d="M1191.4383545,1075.7543945h101.123291l-81.7993164,59.4458008l31.2785645-96.2105713l31.2786865,96.2105713
	L1191.4383545,1075.7543945z"/>
<path class="st11" d="M1122.6756592,1063.9796143h59.0808105l-47.7908936,34.730957L1152.2399902,1042.5l18.2744141,56.2105713
	L1122.6756592,1063.9796143z"/>
<path class="st11" d="M1062.1329346,1010.4796143h59.0808105l-47.7908936,34.730957L1091.6972656,989l18.2744141,56.2105713
	L1062.1329346,1010.4796143z"/>
<path class="st11" d="M1312.6080322,1093.8449707l18.2744141-56.2105713l18.2744141,56.2105713l-47.7908936-34.730957h59.0808105
	L1312.6080322,1093.8449707z"/>
<path class="st11" d="M1373.1508789,1040.3449707l18.2744141-56.2105713l18.274292,56.2105713l-47.7908936-34.7310181h59.0809326
	L1373.1508789,1040.3449707z"/>
<g>
	<path d="M807.0234375,1708.3574219v16.2099609h49.46875c1.1269531,0,1.9902344-0.2021484,2.5917969-0.6064453
		c0.6005859-0.4042969,1.0888672-1.1269531,1.4648438-2.1679688h1.8027344v15.2998047h-1.8027344
		c-0.3759766-1.0400391-0.8642578-1.7626953-1.4648438-2.1669922c-0.6015625-0.4042969-1.4648438-0.6064453-2.5917969-0.6064453
		h-69.8647461v-1.3867188c1.3520508-0.2890625,2.2905273-0.6650391,2.8168945-1.1269531
		c0.5258789-0.4619141,0.7890625-1.1416016,0.7890625-2.0371094v-50.0605469c0-0.8955078-0.2631836-1.5742188-0.7890625-2.0371094
		c-0.5263672-0.4619141-1.4648438-0.8378906-2.8168945-1.1269531v-1.3867188h68.5126953
		c1.1264648,0,1.9902344-0.2060547,2.5917969-0.6181641c0.6000977-0.4130859,1.0888672-1.1318359,1.4648438-2.15625h1.8027344
		v15.2998047h-1.8027344c-0.3759766-1.0273438-0.8647461-1.7460938-1.4648438-2.1572266
		c-0.6015625-0.4101563-1.465332-0.6162109-2.5917969-0.6162109h-48.1166992v14.0429688h31.2138672
		c1.1269531,0,1.9902344-0.2021484,2.5917969-0.6074219c0.6000977-0.4042969,1.0888672-1.1269531,1.4648438-2.1669922h1.8027344
		v14.953125h-1.8027344c-0.3759766-1.0107422-0.8647461-1.7255859-1.4648438-2.1455078
		c-0.6015625-0.4179688-1.4648438-0.6279297-2.5917969-0.6279297H807.0234375z"/>
	<path d="M896.7456055,1693.7939453v35.9746094c0,0.8955078,0.262207,1.5751953,0.7890625,2.0371094
		c0.5253906,0.4619141,1.4648438,0.8378906,2.8168945,1.1269531v1.3867188h-22.5932617v-1.3867188
		c1.3520508-0.2890625,2.2905273-0.6650391,2.8168945-1.1269531c0.5258789-0.4619141,0.7890625-1.1416016,0.7890625-2.0371094
		v-50.1044922c0-0.8662109-0.2631836-1.5302734-0.7890625-1.9931641c-0.5263672-0.4619141-1.4648438-0.8378906-2.8168945-1.1269531
		v-1.3867188h26.1430664v1.3867188c-1.6157227,0.3183594-2.4228516,0.9824219-2.4228516,1.9941406
		c0,0.6933594,0.5253906,1.4589844,1.5776367,2.296875l42.4257813,33.9365234v-35.1074219
		c0-0.8662109-0.2631836-1.5302734-0.7885742-1.9931641c-0.5263672-0.4619141-1.4648438-0.8378906-2.8173828-1.1269531v-1.3867188
		h22.5932617v1.3867188c-1.3520508,0.2890625-2.2915039,0.6650391-2.8168945,1.1269531
		c-0.5263672,0.4628906-0.7890625,1.1269531-0.7890625,1.9931641v50.1044922c0,0.8955078,0.2626953,1.5751953,0.7890625,2.0371094
		c0.5253906,0.4619141,1.4648438,0.8378906,2.8168945,1.1269531v1.3867188h-24.2270508v-1.3867188
		c1.5776367-0.2607422,2.3662109-0.8808594,2.3662109-1.8642578c0-0.5771484-0.9208984-1.5888672-2.7607422-3.0332031
		L896.7456055,1693.7939453z"/>
	<path d="M1022.1884766,1684.9091797v44.859375c0,0.8955078,0.2626953,1.5751953,0.7890625,2.0371094
		c0.5253906,0.4619141,1.4648438,0.8378906,2.8168945,1.1269531v1.3867188h-24.0019531v-1.3867188
		c1.3525391-0.2890625,2.2910156-0.6650391,2.8173828-1.1269531c0.5253906-0.4619141,0.7885742-1.1416016,0.7885742-2.0371094
		v-44.859375h-23.8891602c-1.1269531,0-1.9912109,0.1982422-2.5917969,0.5947266
		c-0.6010742,0.3955078-1.0898438,1.1220703-1.4648438,2.1787109h-1.8032227v-15.2998047h1.8032227
		c0.4130859,1.0537109,0.9101563,1.7783203,1.4931641,2.1767578c0.5820313,0.3984375,1.4365234,0.5976563,2.5634766,0.5976563
		h64.512207c1.1640625,0,2.046875-0.1992188,2.6479492-0.5976563c0.6005859-0.3984375,1.0893555-1.1230469,1.4648438-2.1767578
		h1.8032227v15.2998047h-1.8032227c-0.3754883-1.0566406-0.8642578-1.7832031-1.4648438-2.1787109
		c-0.6010742-0.3964844-1.4838867-0.5947266-2.6479492-0.5947266H1022.1884766z"/>
	<path d="M1083.4580078,1708.3574219v16.2099609h49.46875c1.1269531,0,1.9902344-0.2021484,2.5917969-0.6064453
		c0.6005859-0.4042969,1.0888672-1.1269531,1.4648438-2.1679688h1.8027344v15.2998047h-1.8027344
		c-0.3759766-1.0400391-0.8642578-1.7626953-1.4648438-2.1669922c-0.6015625-0.4042969-1.4648438-0.6064453-2.5917969-0.6064453
		h-69.8647461v-1.3867188c1.3520508-0.2890625,2.2905273-0.6650391,2.8168945-1.1269531
		c0.5258789-0.4619141,0.7890625-1.1416016,0.7890625-2.0371094v-50.0605469c0-0.8955078-0.2631836-1.5742188-0.7890625-2.0371094
		c-0.5263672-0.4619141-1.4648438-0.8378906-2.8168945-1.1269531v-1.3867188h68.5131836
		c1.1259766,0,1.9902344-0.2060547,2.5917969-0.6181641c0.5996094-0.4130859,1.0888672-1.1318359,1.4648438-2.15625h1.8027344
		v15.2998047h-1.8027344c-0.3759766-1.0273438-0.8652344-1.7460938-1.4648438-2.1572266
		c-0.6015625-0.4101563-1.4658203-0.6162109-2.5917969-0.6162109h-48.1171875v14.0429688h31.2138672
		c1.1269531,0,1.9902344-0.2021484,2.5917969-0.6074219c0.6005859-0.4042969,1.0888672-1.1269531,1.4648438-2.1669922h1.8027344
		v14.953125h-1.8027344c-0.3759766-1.0107422-0.8642578-1.7255859-1.4648438-2.1455078
		c-0.6015625-0.4179688-1.4648438-0.6279297-2.5917969-0.6279297H1083.4580078z"/>
	<path d="M1174.5888672,1710.1777344v19.6337891c0,0.8671875,0.2714844,1.5390625,0.8164063,2.015625
		c0.5439453,0.4765625,1.4736328,0.8447266,2.7890625,1.1054688v1.3867188h-24.0019531v-1.3867188
		c1.3525391-0.2890625,2.2910156-0.6650391,2.8173828-1.1269531c0.5253906-0.4619141,0.7890625-1.1269531,0.7890625-1.9941406
		v-50.1035156c0-0.8955078-0.2636719-1.5742188-0.7890625-2.0371094c-0.5263672-0.4619141-1.4648438-0.8378906-2.8173828-1.1269531
		v-1.3867188h48.1171875c5.859375,0,10.5078125,0.2597656,13.9443359,0.7802734
		c3.4365234,0.5195313,6.4316406,1.4296875,8.9863281,2.7304688c2.9667969,1.5029297,5.1835938,3.5400391,6.6484375,6.1113281
		c1.3886719,2.4853516,2.0839844,5.1435547,2.0839844,7.9746094c0,9.6513672-6.9667969,15.2998047-20.9023438,16.9472656
		l14.9316406,16.3398438c2.6269531,2.8603516,4.5527344,4.7021484,5.7734375,5.5263672
		c1.2207031,0.8232422,2.7148438,1.2783203,4.4804688,1.3652344v1.3867188H1210.46875v-1.3867188
		c1.9121094-0.2314453,2.8691406-0.7509766,2.8691406-1.5605469c0-0.5205078-0.8808594-1.7773438-2.6435547-3.7705078
		l-15.5761719-17.4238281H1174.5888672z M1174.5888672,1700.4257813h25.9169922
		c3.8320313,0,6.5361328-0.0869141,8.1132813-0.2607422c1.578125-0.1728516,3.0234375-0.5341797,4.3388672-1.0830078
		c2.8535156-1.1845703,4.2822266-3.3222656,4.2822266-6.4150391c0-3.0908203-1.4287109-5.2294922-4.2822266-6.4140625
		c-1.3525391-0.578125-2.7890625-0.9462891-4.3105469-1.1054688c-1.5214844-0.1582031-4.2353516-0.2382813-8.1416016-0.2382813
		h-25.9169922V1700.4257813z"/>
	<path d="M1271.3535156,1710.3076172v19.5039063c0,0.8671875,0.2724609,1.5390625,0.8173828,2.015625
		c0.5439453,0.4765625,1.4736328,0.8447266,2.7880859,1.1054688v1.3867188h-24.0019531v-1.3867188
		c1.3525391-0.2890625,2.2910156-0.6650391,2.8173828-1.1269531c0.5253906-0.4619141,0.7890625-1.1269531,0.7890625-1.9941406
		v-50.1035156c0-0.8955078-0.2636719-1.5742188-0.7890625-2.0371094c-0.5263672-0.4619141-1.4648438-0.8378906-2.8173828-1.1269531
		v-1.3867188h48.0039063c5.5966797,0,10.0380859,0.2890625,13.3251953,0.8662109
		c3.2861328,0.5791016,6.1884766,1.5751953,8.7050781,2.9912109c2.5917969,1.4736328,4.6201172,3.4091797,6.0849609,5.8076172
		c1.4648438,2.4853516,2.1972656,5.1142578,2.1972656,7.8886719c0,3.9873047-1.3896484,7.4833984-4.1689453,10.4882813
		c-2.4042969,2.5722656-5.5878906,4.3994141-9.5498047,5.4833984c-3.9638672,1.0830078-9.4941406,1.625-16.59375,1.625H1271.3535156
		z M1271.3535156,1700.5556641h25.6357422c5.1074219,0,8.6953125-0.4189453,10.7617188-1.2568359
		c1.3144531-0.5488281,2.375-1.4228516,3.1835938-2.6220703c0.8066406-1.1992188,1.2109375-2.5205078,1.2109375-3.9658203
		c0-1.4160156-0.4042969-2.7236328-1.2109375-3.9228516c-0.8085938-1.1982422-1.8691406-2.0732422-3.1835938-2.6220703
		c-2.0283203-0.8378906-5.6162109-1.2568359-10.7617188-1.2568359h-25.6357422V1700.5556641z"/>
	<path d="M1363.1044922,1710.1777344v19.6337891c0,0.8671875,0.2724609,1.5390625,0.8173828,2.015625
		c0.5439453,0.4765625,1.4736328,0.8447266,2.7880859,1.1054688v1.3867188h-24.0019531v-1.3867188
		c1.3525391-0.2890625,2.2910156-0.6650391,2.8173828-1.1269531c0.5253906-0.4619141,0.7890625-1.1269531,0.7890625-1.9941406
		v-50.1035156c0-0.8955078-0.2636719-1.5742188-0.7890625-2.0371094c-0.5263672-0.4619141-1.4648438-0.8378906-2.8173828-1.1269531
		v-1.3867188h48.1171875c5.859375,0,10.5078125,0.2597656,13.9443359,0.7802734
		c3.4375,0.5195313,6.4316406,1.4296875,8.9873047,2.7304688c2.9667969,1.5029297,5.1826172,3.5400391,6.6484375,6.1113281
		c1.3886719,2.4853516,2.0839844,5.1435547,2.0839844,7.9746094c0,9.6513672-6.9677734,15.2998047-20.9023438,16.9472656
		l14.9306641,16.3398438c2.6279297,2.8603516,4.5537109,4.7021484,5.7744141,5.5263672
		c1.2207031,0.8232422,2.7138672,1.2783203,4.4794922,1.3652344v1.3867188h-27.7861328v-1.3867188
		c1.9121094-0.2314453,2.8691406-0.7509766,2.8691406-1.5605469c0-0.5205078-0.8818359-1.7773438-2.6445313-3.7705078
		l-15.5761719-17.4238281H1363.1044922z M1363.1044922,1700.4257813h25.9179688
		c3.8310547,0,6.5351563-0.0869141,8.1132813-0.2607422c1.5771484-0.1728516,3.0224609-0.5341797,4.3378906-1.0830078
		c2.8544922-1.1845703,4.2822266-3.3222656,4.2822266-6.4150391c0-3.0908203-1.4277344-5.2294922-4.2822266-6.4140625
		c-1.3525391-0.578125-2.7890625-0.9462891-4.3105469-1.1054688c-1.5205078-0.1582031-4.2353516-0.2382813-8.140625-0.2382813
		h-25.9179688V1700.4257813z"/>
	<path d="M1443.0791016,1729.7685547v-50.1044922c0-0.8662109-0.2636719-1.5302734-0.7890625-1.9931641
		c-0.5263672-0.4619141-1.4648438-0.8378906-2.8173828-1.1269531v-1.3867188h24.0019531v1.3867188
		c-1.3515625,0.2597656-2.2910156,0.6279297-2.8164063,1.1054688c-0.5263672,0.4765625-0.7890625,1.1484375-0.7890625,2.0146484
		v50.1044922c0,0.8955078,0.2724609,1.5820313,0.8173828,2.0585938c0.5439453,0.4765625,1.4736328,0.8447266,2.7880859,1.1054688
		v1.3867188h-24.0019531v-1.3867188c1.3525391-0.2890625,2.2910156-0.6650391,2.8173828-1.1269531
		C1442.8154297,1731.34375,1443.0791016,1730.6640625,1443.0791016,1729.7685547z"/>
	<path d="M1552.2958984,1680.1679688l-9.1835938,13.9296875l-1.578125-0.6933594
		c0.0371094-0.2890625,0.0566406-0.5205078,0.0566406-0.6933594c0-0.9824219-1.0898438-2.0371094-3.2675781-3.1640625
		c-6.6865234-3.5830078-14.5371094-5.375-23.5517578-5.375c-3.9814453,0-7.4931641,0.375-10.5361328,1.1259766
		c-2.2167969,0.5771484-4.0097656,1.4433594-5.3808594,2.5976563s-2.0566406,2.4101563-2.0566406,3.7666016
		c0,2.2226563,1.7470703,3.7382813,5.2402344,4.5458984c1.8027344,0.4042969,5.6708984,0.8378906,11.6064453,1.2998047
		l8.8457031,0.6923828c5.2587891,0.4335938,9.5126953,1.0253906,12.7617188,1.7753906
		c3.2490234,0.7509766,6.1318359,1.8046875,8.6484375,3.1621094c2.5537109,1.4150391,4.5732422,3.2773438,6.0566406,5.5869141
		s2.2255859,4.7783203,2.2255859,7.40625c0,4.1582031-1.7460938,7.8535156-5.2392578,11.0859375
		c-3.1552734,2.9453125-8.0576172,5.1259766-14.7060547,6.5400391c-4.9580078,1.0683594-10.2734375,1.6025391-15.9443359,1.6025391
		c-10.1796875,0-20.2275391-1.8779297-30.1435547-5.6347656c-2.1035156-0.7509766-3.3623047-1.1269531-3.7744141-1.1269531
		c-0.4892578,0-1.2597656,0.3183594-2.3105469,0.9541016l-1.6337891-0.6503906l8.3388672-14.5195313l1.6337891,0.6064453
		c0,0.2607422,0,0.4482422,0,0.5634766c0,1.3007813,0.8076172,2.5,2.4228516,3.5976563
		c2.4414063,1.6757813,6.2158203,3.1210938,11.3242188,4.3339844c5.1083984,1.2138672,9.9541016,1.8203125,14.5371094,1.8203125
		c4.9951172,0,9.2587891-0.6484375,12.7890625-1.9462891c1.953125-0.7207031,3.5117188-1.6787109,4.6767578-2.8769531
		c1.1640625-1.1962891,1.7470703-2.4433594,1.7470703-3.7421875c0-1.9599609-1.3720703-3.3583984-4.1132813-4.1962891
		c-1.9160156-0.5761719-5.7851563-1.109375-11.6064453-1.5996094l-8.6767578-0.6923828
		c-5.8232422-0.4628906-9.9355469-0.9033203-12.3388672-1.3222656c-2.4042969-0.4199219-4.8085938-1.0917969-7.2119141-2.0175781
		c-3.4189453-1.3007813-6.1044922-3.2529297-8.0576172-5.8564453c-1.765625-2.3417969-2.6474609-5.03125-2.6474609-8.0683594
		c0-5.0019531,2.234375-9.1367188,6.7041016-12.4052734c5.8603516-4.3085938,14.6494141-6.4628906,26.3691406-6.4628906
		c4.9199219,0,9.5019531,0.3837891,13.7470703,1.1533203c4.2441406,0.7695313,9.5400391,2.1835938,15.8886719,4.2441406
		c2.1777344,0.6669922,3.5117188,1.0009766,4,1.0009766c0.7890625,0,1.7089844-0.3339844,2.7607422-1.0009766
		L1552.2958984,1680.1679688z"/>
	<path d="M1587.7041016,1708.3574219v16.2099609h49.46875c1.1269531,0,1.9902344-0.2021484,2.5917969-0.6064453
		c0.6005859-0.4042969,1.0888672-1.1269531,1.4648438-2.1679688h1.8027344v15.2998047h-1.8027344
		c-0.3759766-1.0400391-0.8642578-1.7626953-1.4648438-2.1669922c-0.6015625-0.4042969-1.4648438-0.6064453-2.5917969-0.6064453
		h-69.8652344v-1.3867188c1.3525391-0.2890625,2.2910156-0.6650391,2.8173828-1.1269531
		c0.5253906-0.4619141,0.7890625-1.1416016,0.7890625-2.0371094v-50.0605469c0-0.8955078-0.2636719-1.5742188-0.7890625-2.0371094
		c-0.5263672-0.4619141-1.4648438-0.8378906-2.8173828-1.1269531v-1.3867188h68.5126953
		c1.1269531,0,1.9912109-0.2060547,2.5917969-0.6181641c0.6005859-0.4130859,1.0888672-1.1318359,1.4648438-2.15625h1.8037109
		v15.2998047h-1.8037109c-0.3759766-1.0273438-0.8642578-1.7460938-1.4648438-2.1572266
		c-0.6005859-0.4101563-1.4648438-0.6162109-2.5917969-0.6162109h-48.1162109v14.0429688h31.2138672
		c1.1269531,0,1.9902344-0.2021484,2.5917969-0.6074219c0.6005859-0.4042969,1.0888672-1.1269531,1.4648438-2.1669922h1.8027344
		v14.953125h-1.8027344c-0.3759766-1.0107422-0.8642578-1.7255859-1.4648438-2.1455078
		c-0.6015625-0.4179688-1.4648438-0.6279297-2.5917969-0.6279297H1587.7041016z"/>
	<path d="M1729.9941406,1680.1679688l-9.1835938,13.9296875l-1.578125-0.6933594
		c0.0371094-0.2890625,0.0566406-0.5205078,0.0566406-0.6933594c0-0.9824219-1.0898438-2.0371094-3.2675781-3.1640625
		c-6.6865234-3.5830078-14.5371094-5.375-23.5517578-5.375c-3.9814453,0-7.4931641,0.375-10.5361328,1.1259766
		c-2.2167969,0.5771484-4.0097656,1.4433594-5.3808594,2.5976563s-2.0566406,2.4101563-2.0566406,3.7666016
		c0,2.2226563,1.7470703,3.7382813,5.2402344,4.5458984c1.8027344,0.4042969,5.6708984,0.8378906,11.6064453,1.2998047
		l8.8457031,0.6923828c5.2587891,0.4335938,9.5126953,1.0253906,12.7617188,1.7753906
		c3.2490234,0.7509766,6.1318359,1.8046875,8.6484375,3.1621094c2.5537109,1.4150391,4.5732422,3.2773438,6.0566406,5.5869141
		s2.2255859,4.7783203,2.2255859,7.40625c0,4.1582031-1.7460938,7.8535156-5.2392578,11.0859375
		c-3.1552734,2.9453125-8.0576172,5.1259766-14.7060547,6.5400391c-4.9580078,1.0683594-10.2734375,1.6025391-15.9443359,1.6025391
		c-10.1796875,0-20.2275391-1.8779297-30.1435547-5.6347656c-2.1035156-0.7509766-3.3623047-1.1269531-3.7744141-1.1269531
		c-0.4892578,0-1.2597656,0.3183594-2.3105469,0.9541016l-1.6337891-0.6503906l8.3388672-14.5195313l1.6337891,0.6064453
		c0,0.2607422,0,0.4482422,0,0.5634766c0,1.3007813,0.8076172,2.5,2.4228516,3.5976563
		c2.4414063,1.6757813,6.2158203,3.1210938,11.3242188,4.3339844c5.1083984,1.2138672,9.9541016,1.8203125,14.5371094,1.8203125
		c4.9951172,0,9.2587891-0.6484375,12.7890625-1.9462891c1.953125-0.7207031,3.5117188-1.6787109,4.6767578-2.8769531
		c1.1640625-1.1962891,1.7470703-2.4433594,1.7470703-3.7421875c0-1.9599609-1.3720703-3.3583984-4.1132813-4.1962891
		c-1.9160156-0.5761719-5.7851563-1.109375-11.6064453-1.5996094l-8.6767578-0.6923828
		c-5.8232422-0.4628906-9.9355469-0.9033203-12.3388672-1.3222656c-2.4042969-0.4199219-4.8085938-1.0917969-7.2119141-2.0175781
		c-3.4189453-1.3007813-6.1044922-3.2529297-8.0576172-5.8564453c-1.765625-2.3417969-2.6474609-5.03125-2.6474609-8.0683594
		c0-5.0019531,2.234375-9.1367188,6.7041016-12.4052734c5.8603516-4.3085938,14.6494141-6.4628906,26.3691406-6.4628906
		c4.9199219,0,9.5019531,0.3837891,13.7470703,1.1533203c4.2441406,0.7695313,9.5400391,2.1835938,15.8886719,4.2441406
		c2.1777344,0.6669922,3.5117188,1.0009766,4,1.0009766c0.7890625,0,1.7089844-0.3339844,2.7607422-1.0009766
		L1729.9941406,1680.1679688z"/>
</g>
<path class="st12" d="M1075.0625,849.2556152c1.8808594-45.6298828,2.824707-90.2446289,2.824707-133.8476563
	c0-31.7236328-0.5092773-65.402832-1.5209961-101.0375977c-0.2919922-13.3256836-2.8618164-21.9086914-7.7138672-25.7485352
	c-4.8544922-3.8359375-15.3183594-6.8442383-31.3974609-9.0170898c-4.0571289-8.8339844-3.9111328-17.5253906,0.4345703-26.0742188
	c33.315918,1.449707,76.6269531,2.1728516,129.9365234,2.1728516l71.2695313,190.3417969l73.4423828-190.3417969
	c38.8193359,0,81.6992188-0.5771484,128.6328125-1.7382813c2.8955078,9.4179688,3.1845703,18.7612305,0.8691406,28.0297852
	c-32.015625,3.1879883-48.1660156,7.4624023-48.4550781,12.8198242
	c-1.3037109,27.2353516-1.9550781,67.4331055-1.9550781,120.5932617c0,54.9018555,0.9404297,100.3144531,2.8242188,136.237793
	c0.2890625,5.3608398,16.4394531,9.6352539,48.4550781,12.8198242c2.3154297,9.2719727,2.0263672,18.6118164-0.8691406,28.0297852
	c-46.9335938-1.1611328-74.2402344-1.7382813-81.9169922-1.7382813c-11.5908203,0-44.0371094,0.5771484-97.34375,1.7382813
	c-3.6220703-10.1411133-3.6220703-19.480957,0-28.0297852c31.4316406-3.1845703,47.2939453-7.3129883,47.5859375-12.3852539
	c1.4462891-33.8964844,2.1728516-74.0942383,2.1728516-120.5932617c0-36.2119141-0.1464844-62.7954102-0.4345703-79.7436523
	l-87.7832031,234.0161133h-14.5585938l-94.7363281-238.7963867v84.5239258c0,33.4619141,0.7236328,72.7192383,2.1728516,117.7685547
	c0.2890625,7.8222656,16.1503906,13.0371094,47.5859375,15.6445313c3.6191406,8.6914063,3.6191406,18.034668,0,28.0297852
	c-43.3144531-1.7382813-88.2924805-1.7382813-134.934082,0c-3.4765625-9.9951172-3.4765625-19.3383789,0-28.0297852
	C1059.6352539,862.0041504,1074.7705078,856.7893066,1075.0625,849.2556152z"/>
<path class="st1" d="M1083.9711914,849.2556152c-0.5805664,13.1831055-16.5883789,21.2226563-48.0200195,24.1186523
	c-1.1611328,2.3188477-1.1611328,5.7241211,0,10.2124023c27.3779297-0.8691406,46.7875977-1.3037109,58.2324219-1.3037109
	c18.1054688,0,38.7480469,0.4345703,61.9257813,1.3037109c1.1582031-4.4882813,1.1582031-7.8935547,0-10.2124023
	c-31.7236328-2.8959961-47.7314453-10.9355469-48.0195313-24.1186523
	c-1.4501953-45.0493164-2.1728516-84.3066406-2.1728516-117.7685547c0-45.7724609,0.5771484-86.262207,1.7382813-121.4624023
	h2.1728516l106.0351563,266.8261719h2.1728516l99.0820313-261.6113281h1.9550781
	c1.4462891,43.6030273,2.1728516,82.3510742,2.1728516,116.2475586c0,47.0795898-0.7265625,87.2773438-2.1728516,120.5932617
	c-0.2919922,3.7685547-1.9921875,6.9902344-5.1054688,9.6694336c-3.1171875,2.6816406-7.7138672,4.7802734-13.7978516,6.3007813
	c-6.0839844,1.5214844-11.2275391,2.5737305-15.4277344,3.1508789c-4.203125,0.5805664-9.5605469,1.1611328-16.0791016,1.7382813
	c-1.1611328,2.3188477-1.1611328,5.7241211,0,10.2124023c24.625-0.8691406,49.8300781-1.3037109,75.6152344-1.3037109
	c30.8544922,0,60.5478516,0.4345703,89.0869141,1.3037109c1.1582031-2.6074219,1.1582031-6.0092773,0-10.2124023
	c-48.0947266-2.8959961-72.2841797-9.703125-72.5732422-20.4248047
	c-1.7382813-45.4838867-2.6074219-91.1850586-2.6074219-137.1069336c0-44.46875,0.5771484-84.9584961,1.7382813-121.4624023
	c0.2890625-10.7182617,24.4785156-17.5253906,72.5732422-20.4248047c1.1582031-4.199707,1.1582031-7.6049805,0-10.2124023
	c-28.5390625,0.8691406-66.4892578,1.3037109-113.8574219,1.3037109l-92.5634766,241.6210938l-89.0869141-241.6210938
	c-35.3457031,0-66.6347656-0.5771484-93.8666992-1.7382813c-1.449707,2.8994141-1.449707,5.6494141,0,8.2568359
	c17.2368164,2.4648438,28.4985352,6.0498047,33.7875977,10.7558594c5.2866211,4.7089844,8.0737305,15.5356445,8.3657227,32.4838867
	c1.0117188,35.6347656,1.5209961,69.3139648,1.5209961,101.0375977
	C1086.7958984,759.2995605,1085.8520508,803.9177246,1083.9711914,849.2556152z"/>
<g>
	<path class="st6" d="M1381.888916,224.8455963c-50.7636719,91.4589996-88.3753662,109.5966034-139.138916,123.7468109
		c-50.7635498-14.1502075-88.3752441-32.2878113-139.138916-123.7468109c0,116.5670013-7.1737061,169.1804047,7.1738281,258.8519897
		H1242.75h131.96521C1389.0626221,394.026001,1381.888916,341.4125977,1381.888916,224.8455963z"/>
	
		<linearGradient id="SVGID_2_" gradientUnits="userSpaceOnUse" x1="988.831604" y1="334.5469055" x2="1496.668457" y2="334.5469055">
		<stop  offset="0" style="stop-color:#616161"/>
		<stop  offset="1" style="stop-color:#FFFFFF"/>
	</linearGradient>
	<path class="st13" d="M1496.668457,185.3961945c-126.9592285,218.194809-199.3551025,201.4561005-253.918457,0
		c-54.5633545,201.4561005-126.9592285,218.194809-253.918396,0
		c47.2608032,108.1977081,79.7609253,236.4279022,71.1680298,298.3013916L1242.75,483.6975098l182.7503662,0.0000916
		C1416.9074707,421.8240967,1449.4075928,293.5939026,1496.668457,185.3961945z"/>
	
		<linearGradient id="SVGID_3_" gradientUnits="userSpaceOnUse" x1="1053.5429688" y1="468.0325928" x2="1431.9570313" y2="468.0325928">
		<stop  offset="0" style="stop-color:#616161"/>
		<stop  offset="1" style="stop-color:#FFFFFF"/>
	</linearGradient>
	<path class="st14" d="M1421.9570313,449.3676147h-358.4140625c-5.5227051,0-10,4.4771729-10,10v17.3299866
		c0,5.5227966,4.4772949,10,10,10h358.4140625c5.5227051,0,10-4.4772034,10-10v-17.3299866
		C1431.9570313,453.8447876,1427.4797363,449.3676147,1421.9570313,449.3676147z"/>
	<circle class="st6" cx="1415.4143066" cy="468.0325928" r="13.1518002"/>
	<circle class="st6" cx="1070.0856934" cy="468.0325928" r="13.1518126"/>
	
		<ellipse transform="matrix(0.7071068 -0.7071068 0.7071068 0.7071068 158.5271301 753.5108032)" class="st15" cx="988.831604" cy="185.396225" rx="18.3962879" ry="18.3962631"/>
	
		<ellipse transform="matrix(0.2279562 -0.9736714 0.9736714 0.2279562 778.9425049 1353.1641846)" class="st15" cx="1242.75" cy="185.396225" rx="18.3962784" ry="18.3962212"/>
	
		<ellipse transform="matrix(0.5259159 -0.8505365 0.8505365 0.5259159 551.8604126 1360.864624)" class="st15" cx="1496.668457" cy="185.396225" rx="18.3962822" ry="18.3962555"/>
	
		<ellipse transform="matrix(0.7071068 -0.7071068 0.7071068 0.7071068 245.756012 1042.9987793)" class="st6" cx="1381.888916" cy="224.8456268" rx="18.3962879" ry="18.3962631"/>
	
		<ellipse transform="matrix(0.7071068 -0.7071068 0.7071068 0.7071068 164.5121155 846.8586426)" class="st6" cx="1104.5048828" cy="224.8456268" rx="18.3962879" ry="18.3962631"/>
	<circle class="st6" cx="1156.7681885" cy="468.0325928" r="13.1518145"/>
	<circle class="st6" cx="1242.75" cy="468.0325928" r="13.1517963"/>
	<circle class="st6" cx="1328.7318115" cy="468.0325928" r="13.1518002"/>
</g>
<image style="display:none;overflow:visible;opacity:0.74;" width="3000" height="2250" xlink:href="C:\Users\sanya\Downloads\Telegram Desktop\SAVE_20200609_084704.jpg"  transform="matrix(1 0 0 1 -412.5 -159.5)">
</image>
</svg>
